<svg xmlns="http://www.w3.org/2000/svg" xmlns:xlink="http://www.w3.org/1999/xlink" width="500" zoomAndPan="magnify" viewBox="0 0 375 374.999991" height="500" preserveAspectRatio="xMidYMid meet" version="1.0"><defs><clipPath id="02146284ec"><path d="M 131.25 131.25 L 141.90625 131.25 L 141.90625 140.34375 L 131.25 140.34375 Z M 131.25 131.25 " clip-rule="nonzero"/></clipPath><clipPath id="e3f0214e13"><path d="M 135.796875 131.25 L 137.351562 131.25 C 138.558594 131.25 139.714844 131.730469 140.566406 132.582031 C 141.421875 133.433594 141.898438 134.589844 141.898438 135.796875 C 141.898438 137.003906 141.421875 138.160156 140.566406 139.011719 C 139.714844 139.867188 138.558594 140.34375 137.351562 140.34375 L 135.796875 140.34375 C 134.589844 140.34375 133.433594 139.867188 132.582031 139.011719 C 131.730469 138.160156 131.25 137.003906 131.25 135.796875 C 131.25 134.589844 131.730469 133.433594 132.582031 132.582031 C 133.433594 131.730469 134.589844 131.25 135.796875 131.25 Z M 135.796875 131.25 " clip-rule="nonzero"/></clipPath></defs><path fill="#ce7a5b" d="M 160.183594 153.527344 L 152.378906 145.722656 C 164.589844 131.867188 170.699219 114.496094 170.707031 97.125 L 170.707031 96.902344 C 170.660156 78.117188 163.476562 59.34375 149.15625 45.019531 L 145.828125 41.691406 L 142.5 45.019531 C 130.621094 56.902344 123.648438 71.84375 121.59375 87.320312 C 109.195312 77.832031 93.699219 72.191406 76.898438 72.191406 L 72.191406 72.191406 L 72.191406 76.898438 C 72.191406 93.699219 77.832031 109.195312 87.320312 121.59375 C 82.230469 122.269531 77.199219 123.476562 72.3125 125.214844 C 62.347656 128.765625 52.996094 134.527344 45.019531 142.5 L 41.695312 145.828125 L 45.019531 149.15625 C 50.703125 154.839844 57.089844 159.394531 63.898438 162.832031 C 90.171875 176.09375 122.761719 172.605469 145.722656 152.378906 L 153.527344 160.183594 C 120.308594 189.949219 69.148438 188.867188 37.230469 156.945312 L 36.871094 156.625 L 36.492188 156.34375 L 36.089844 156.105469 L 35.671875 155.914062 L 35.242188 155.761719 L 34.800781 155.65625 L 34.351562 155.589844 L 33.902344 155.570312 L 33.449219 155.589844 L 33.003906 155.65625 L 32.5625 155.761719 L 32.132812 155.914062 L 31.714844 156.105469 L 31.3125 156.34375 L 30.929688 156.625 L 30.574219 156.945312 C 30.574219 156.945312 0 187.519531 0 187.519531 L 33.902344 221.421875 L 37.230469 218.09375 C 69.148438 186.171875 120.308594 185.09375 153.527344 214.855469 L 145.722656 222.660156 C 131.589844 210.210938 113.808594 204.101562 96.097656 204.339844 L 95.875 204.339844 C 77.433594 204.644531 59.082031 211.824219 45.019531 225.886719 L 41.695312 229.214844 L 45.019531 232.542969 C 56.902344 244.421875 71.847656 251.390625 87.320312 253.449219 C 77.832031 265.84375 72.191406 281.339844 72.191406 298.140625 L 72.191406 302.847656 L 76.898438 302.847656 C 93.699219 302.847656 109.195312 297.207031 121.59375 287.71875 C 123.648438 303.195312 130.621094 318.140625 142.5 330.019531 L 145.828125 333.347656 L 149.15625 330.019531 C 163.535156 315.640625 170.71875 296.777344 170.707031 277.917969 L 170.707031 277.695312 C 170.648438 260.398438 164.539062 243.117188 152.378906 229.320312 L 160.183594 221.511719 C 189.949219 254.734375 188.867188 305.890625 156.949219 337.8125 L 153.621094 341.140625 L 187.519531 375.039062 L 221.421875 341.140625 L 218.09375 337.8125 C 186.171875 305.890625 185.09375 254.734375 214.855469 221.511719 L 222.660156 229.320312 C 210.546875 243.070312 204.4375 260.273438 204.332031 277.511719 L 204.332031 277.730469 C 204.277344 296.65625 211.460938 315.59375 225.886719 330.019531 L 229.214844 333.347656 L 232.542969 330.019531 C 244.421875 318.140625 251.390625 303.195312 253.449219 287.71875 C 265.84375 297.207031 281.339844 302.847656 298.140625 302.847656 L 302.847656 302.847656 L 302.847656 298.140625 C 302.847656 281.339844 297.207031 265.84375 287.722656 253.449219 C 303.195312 251.390625 318.140625 244.421875 330.019531 232.542969 L 333.347656 229.214844 L 330.019531 225.886719 C 316.183594 212.050781 298.195312 204.875 280.050781 204.363281 L 279.820312 204.355469 C 261.820312 203.902344 243.683594 210.003906 229.320312 222.660156 L 221.511719 214.855469 C 254.734375 185.09375 305.890625 186.171875 337.8125 218.09375 L 341.140625 221.421875 L 375.042969 187.519531 L 341.140625 153.621094 L 337.8125 156.945312 C 305.890625 188.867188 254.734375 189.949219 221.511719 160.183594 L 229.320312 152.378906 C 243.175781 164.589844 260.546875 170.699219 277.917969 170.707031 C 296.777344 170.71875 315.640625 163.53125 330.019531 149.15625 L 333.347656 145.828125 L 330.019531 142.5 C 318.140625 130.621094 303.195312 123.648438 287.722656 121.59375 C 297.207031 109.195312 302.847656 93.699219 302.847656 76.898438 L 302.847656 72.191406 L 298.140625 72.191406 C 281.339844 72.191406 265.84375 77.832031 253.449219 87.320312 C 251.390625 71.84375 244.421875 56.902344 232.542969 45.019531 L 229.214844 41.691406 L 225.886719 45.019531 C 212.753906 58.15625 205.621094 75.035156 204.492188 92.234375 C 203.246094 111.203125 209.304688 130.5625 222.664062 145.722656 L 214.855469 153.527344 C 185.09375 120.308594 186.171875 69.148438 218.09375 37.230469 L 221.421875 33.902344 L 187.519531 0 L 153.621094 33.902344 L 156.949219 37.230469 C 188.867188 69.148438 189.949219 120.308594 160.183594 153.527344 Z M 187.519531 303.855469 C 183.6875 317.308594 176.792969 330.078125 166.847656 341.058594 C 166.847656 341.058594 187.519531 361.726562 187.519531 361.726562 C 187.519531 361.726562 208.191406 341.058594 208.191406 341.058594 C 198.246094 330.078125 191.355469 317.308594 187.519531 303.855469 Z M 145.828125 236.128906 C 135.523438 248.117188 130.367188 263.019531 130.359375 277.921875 C 130.351562 292.847656 135.507812 307.769531 145.828125 319.777344 C 156.148438 307.769531 161.304688 292.847656 161.296875 277.921875 L 161.296875 277.730469 C 161.246094 262.890625 156.089844 248.066406 145.828125 236.128906 Z M 229.214844 236.128906 C 218.988281 248.019531 213.835938 262.78125 213.746094 277.566406 L 213.746094 277.761719 C 213.703125 292.738281 218.855469 307.726562 229.214844 319.777344 C 239.570312 307.726562 244.726562 292.738281 244.683594 277.761719 C 244.636719 262.910156 239.484375 248.074219 229.214844 236.128906 Z M 247.554688 247.554688 C 251.628906 256.554688 253.800781 266.207031 254.066406 275.902344 C 264.460938 285.722656 278.128906 292.109375 293.25 293.25 C 292.109375 278.125 285.722656 264.460938 275.90625 254.066406 C 266.207031 253.800781 256.554688 251.628906 247.554688 247.554688 Z M 127.484375 247.554688 C 118.484375 251.628906 108.832031 253.800781 99.136719 254.066406 C 89.320312 264.460938 82.929688 278.128906 81.789062 293.25 C 96.914062 292.109375 110.578125 285.722656 120.976562 275.902344 C 121.242188 266.207031 123.414062 256.554688 127.484375 247.554688 Z M 211.4375 163.601562 C 199.734375 151.898438 191.761719 137.867188 187.519531 122.992188 C 183.28125 137.867188 175.308594 151.898438 163.601562 163.601562 C 151.898438 175.308594 137.867188 183.28125 122.992188 187.519531 C 137.867188 191.761719 151.898438 199.734375 163.601562 211.4375 C 175.308594 223.140625 183.28125 237.171875 187.519531 252.046875 C 191.761719 237.171875 199.734375 223.140625 211.4375 211.4375 C 223.140625 199.734375 237.171875 191.761719 252.046875 187.519531 C 237.171875 183.28125 223.140625 175.308594 211.4375 163.601562 Z M 279.585938 213.765625 C 264.132812 213.375 248.5625 218.523438 236.128906 229.214844 C 248.617188 239.949219 264.265625 245.09375 279.785156 244.65625 C 294.082031 244.25 308.273438 239.105469 319.777344 229.214844 C 308.273438 219.324219 294.082031 214.175781 279.785156 213.769531 Z M 138.910156 229.214844 C 126.628906 218.65625 111.292969 213.503906 96.027344 213.753906 C 81.46875 213.992188 66.976562 219.144531 55.265625 229.214844 C 66.976562 239.28125 81.46875 244.433594 96.027344 244.671875 C 111.292969 244.921875 126.628906 239.769531 138.910156 229.214844 Z M 203.886719 171.152344 C 194.855469 162.121094 180.1875 162.121094 171.152344 171.152344 C 162.121094 180.1875 162.121094 194.855469 171.152344 203.886719 C 180.1875 212.921875 194.855469 212.921875 203.886719 203.886719 C 212.921875 194.855469 212.921875 180.1875 203.886719 171.152344 Z M 303.855469 187.519531 C 317.308594 191.355469 330.078125 198.246094 341.058594 208.191406 C 341.058594 208.191406 361.730469 187.519531 361.730469 187.519531 C 361.730469 187.519531 341.058594 166.847656 341.058594 166.847656 C 330.078125 176.792969 317.3125 183.6875 303.855469 187.519531 Z M 33.984375 166.847656 L 13.3125 187.519531 C 13.3125 187.519531 33.984375 208.191406 33.984375 208.191406 C 44.960938 198.246094 57.730469 191.355469 71.1875 187.519531 C 57.726562 183.683594 44.957031 176.792969 33.984375 166.847656 Z M 197.234375 177.808594 C 202.59375 183.167969 202.59375 191.871094 197.234375 197.234375 C 191.875 202.59375 183.167969 202.59375 177.808594 197.234375 C 172.449219 191.871094 172.449219 183.167969 177.808594 177.808594 C 183.167969 172.449219 191.875 172.449219 197.234375 177.808594 Z M 97.078125 130.359375 C 89.757812 130.359375 82.445312 131.601562 75.472656 134.085938 C 68.234375 136.660156 61.371094 140.574219 55.265625 145.828125 C 59.203125 149.214844 63.457031 152.046875 67.921875 154.320312 L 68.136719 154.425781 C 90.832031 165.878906 118.917969 163.011719 138.910156 145.828125 C 126.933594 135.53125 112.050781 130.375 97.160156 130.359375 Z M 277.730469 130.359375 C 262.890625 130.410156 248.066406 135.566406 236.128906 145.828125 C 248.117188 156.132812 263.019531 161.289062 277.921875 161.296875 C 292.847656 161.300781 307.773438 156.144531 319.777344 145.828125 C 307.773438 135.507812 292.847656 130.351562 277.921875 130.359375 Z M 244.535156 92.691406 C 243.617188 79.269531 238.511719 66.082031 229.214844 55.261719 C 219.914062 66.082031 214.808594 79.269531 213.894531 92.691406 L 213.882812 92.851562 C 212.816406 109.148438 217.921875 125.777344 229.214844 138.910156 C 240.503906 125.777344 245.613281 109.148438 244.542969 92.851562 Z M 145.828125 138.910156 C 156.132812 126.925781 161.289062 112.023438 161.296875 97.117188 C 161.304688 82.195312 156.148438 67.269531 145.828125 55.265625 C 135.507812 67.269531 130.351562 82.195312 130.359375 97.117188 C 130.367188 112.023438 135.523438 126.925781 145.828125 138.910156 Z M 120.976562 99.136719 C 110.578125 89.320312 96.914062 82.929688 81.789062 81.789062 C 82.929688 96.914062 89.320312 110.578125 99.136719 120.976562 C 108.832031 121.242188 118.488281 123.414062 127.484375 127.484375 C 123.414062 118.484375 121.242188 108.832031 120.976562 99.136719 Z M 275.90625 120.972656 C 285.722656 110.578125 292.109375 96.914062 293.25 81.789062 C 278.128906 82.929688 264.460938 89.320312 254.066406 99.136719 C 253.800781 108.832031 251.628906 118.488281 247.554688 127.484375 C 256.554688 123.410156 266.207031 121.242188 275.90625 120.972656 Z M 187.519531 71.183594 C 191.355469 57.730469 198.246094 44.960938 208.191406 33.984375 C 208.191406 33.984375 187.519531 13.3125 187.519531 13.3125 C 187.519531 13.3125 166.847656 33.984375 166.847656 33.984375 C 176.792969 44.960938 183.6875 57.730469 187.519531 71.183594 Z M 187.519531 71.183594 " fill-opacity="1" fill-rule="evenodd"/><g clip-path="url(#02146284ec)"><g clip-path="url(#e3f0214e13)"><path fill="#ce7a5b" d="M 131.25 131.25 L 141.90625 131.25 L 141.90625 140.34375 L 131.25 140.34375 Z M 131.25 131.25 " fill-opacity="1" fill-rule="nonzero"/></g></g></svg>